HIERARCHY
ROOT Hips
{
	OFFSET 55.310501 45.591206 43.872097
	CHANNELS 6 Xposition Yposition Zposition Zrotation Xrotation Yrotation
	JOINT Chest
	{
		OFFSET -0.153500 1.163101 7.852402
		CHANNELS 6 Xposition Yposition Zposition Zrotation Xrotation Yrotation
		JOINT Chest2
		{
			OFFSET 0.000000 0.000000 3.343300
			CHANNELS 6 Xposition Yposition Zposition Zrotation Xrotation Yrotation
			JOINT Neck
			{
				OFFSET 0.000000 0.000000 7.785500
				CHANNELS 6 Xposition Yposition Zposition Zrotation Xrotation Yrotation
				JOINT Head
				{
					OFFSET 0.000000 0.000000 2.173901
					CHANNELS 6 Xposition Yposition Zposition Zrotation Xrotation Yrotation
					End Site
					{
						OFFSET 0.000000 0.000000 10.528198
					}
				}
			}
			JOINT LeftCollar
			{
				OFFSET 2.676300 -1.652401 4.938301
				CHANNELS 6 Xposition Yposition Zposition Zrotation Xrotation Yrotation
				JOINT LeftShoulder
				{
					OFFSET 4.299000 0.000000 0.000000
					CHANNELS 6 Xposition Yposition Zposition Zrotation Xrotation Yrotation
					JOINT LeftElbow
					{
						OFFSET 0.000000 0.000000 -10.245102
						CHANNELS 6 Xposition Yposition Zposition Zrotation Xrotation Yrotation
						JOINT LeftWrist
						{
							OFFSET 0.000000 0.000000 -12.703300
							CHANNELS 6 Xposition Yposition Zposition Zrotation Xrotation Yrotation
							End Site
							{
								OFFSET 0.000000 0.000000 -2.173901
							}
						}
					}
				}
			}
			JOINT RightCollar
			{
				OFFSET -2.534599 -1.686401 5.195000
				CHANNELS 6 Xposition Yposition Zposition Zrotation Xrotation Yrotation
				JOINT RightShoulder
				{
					OFFSET -4.144100 0.000000 0.000000
					CHANNELS 6 Xposition Yposition Zposition Zrotation Xrotation Yrotation
					JOINT RightElbow
					{
						OFFSET 0.000000 0.000000 -10.116501
						CHANNELS 6 Xposition Yposition Zposition Zrotation Xrotation Yrotation
						JOINT RightWrist
						{
							OFFSET 0.000000 0.000000 -12.937801
							CHANNELS 6 Xposition Yposition Zposition Zrotation Xrotation Yrotation
							End Site
							{
								OFFSET 0.000000 0.000000 -2.173901
							}
						}
					}
				}
			}
		}
	}
	JOINT LeftHip
	{
		OFFSET 2.175598 0.064499 -2.662899
		CHANNELS 6 Xposition Yposition Zposition Zrotation Xrotation Yrotation
		JOINT LeftKnee
		{
			OFFSET 0.000000 -0.000004 -18.585800
			CHANNELS 6 Xposition Yposition Zposition Zrotation Xrotation Yrotation
			JOINT LeftAnkle
			{
				OFFSET 0.000000 0.000000 -18.979500
				CHANNELS 6 Xposition Yposition Zposition Zrotation Xrotation Yrotation
				End Site
				{
					OFFSET 0.000000 -9.264000 0.000000
				}
			}
		}
	}
	JOINT RightHip
	{
		OFFSET -2.092400 -0.058102 -2.581200
		CHANNELS 6 Xposition Yposition Zposition Zrotation Xrotation Yrotation
		JOINT RightKnee
		{
			OFFSET 0.000000 -0.000004 -18.665001
			CHANNELS 6 Xposition Yposition Zposition Zrotation Xrotation Yrotation
			JOINT RightAnkle
			{
				OFFSET 0.000000 0.000000 -18.566601
				CHANNELS 6 Xposition Yposition Zposition Zrotation Xrotation Yrotation
				End Site
				{
					OFFSET 0.000000 -8.497601 0.000000
				}
			}
		}
	}
}
MOTION
Frames: 4
Frame Time: 0.041667
24.545696 66.232292 40.790398 684.645595 25.216247 -22.646334 -0.153495 1.163090 7.852406 41.914395 -7.513593 -8.666626 0.000010 0.000011 3.343309 -19.847034 -10.686252 -1.869979 -0.000004 0.000001 7.785506 52.367907 -9.528595 0.583189 0.000007 0.000002 2.173905 11.973408 -5.746754 13.285305 2.676296 -1.652406 4.938304 -1.132921 11.145917 4.902964 4.299009 0.000013 0.000003 15.387962 9.247349 -104.952175 0.000000 0.000004 -10.245094 7.101526 725.525916 -2.229300 0.000004 0.000008 -12.703318 930.379409 -134.853124 434.333669 -2.534603 -1.686396 5.195002 -2.289539 4.987169 4.609929 -4.144110 -0.000002 -0.000004 55.414950 -21.152754 157.084843 0.000010 -0.000007 -10.116493 -86.845398 -10.106462 -22.577339 -0.000001 -0.000009 -12.937809 -358.017097 -369.324694 18.002273 2.175599 0.064487 -2.662893 -273.337832 -39.080188 79.650661 -0.000004 -0.000012 -18.585806 -49.317934 -245.008612 65.703619 -0.000004 0.000005 -18.979496 295.711893 28.117676 10.130436 -2.092386 -0.058105 -2.581186 244.951320 -24.608002 -67.270335 0.000000 0.000005 -18.665005 -937.437234 41.890397 -65.393775 -0.000004 -0.000003 -18.566599 700.093898 -5.140986 -5.995767
24.558601 66.224197 40.791992 684.571064 25.303274 -22.595022 -0.153504 1.163100 7.852405 42.013849 -7.561335 -8.641823 -0.000001 -0.000002 3.343300 -19.919538 -10.680079 -1.884329 -0.000006 -0.000008 7.785504 52.488508 -9.505489 0.585981 -0.000006 -0.000001 2.173909 11.868366 -5.747825 13.289184 2.676293 -1.652407 4.938300 -0.646028 10.789919 4.572483 4.298997 0.000007 0.000000 14.813635 9.566960 -104.744496 -0.000000 -0.000005 -10.245105 6.956278 725.667984 -2.255133 -0.000002 0.000004 -12.703295 930.267940 -134.758471 434.327822 -2.534599 -1.686412 5.194994 -2.664065 4.727041 4.948070 -4.144098 -0.000004 -0.000019 55.618507 -21.208308 156.644938 0.000005 -0.000011 -10.116493 -86.977432 -10.177873 -22.521478 -0.000000 -0.000003 -12.937805 -357.866751 -369.352561 17.744224 2.175592 0.064496 -2.662896 -273.048451 -39.106231 79.731004 -0.000002 -0.000002 -18.585812 -49.053012 -244.958014 65.483913 0.000001 0.000004 -18.979502 295.681512 28.218168 10.111595 -2.092394 -0.058100 -2.581195 245.581255 -25.029566 -66.931155 0.000002 0.000004 -18.665009 -936.470408 39.629878 -65.653213 0.000015 -0.000006 -18.566599 697.940421 -5.755297 -7.886284
24.575104 66.216599 40.797695 684.490686 25.413380 -22.559678 -0.153509 1.163099 7.852404 42.129665 -7.613523 -8.604524 0.000008 0.000007 3.343299 -19.974007 -10.681228 -1.896941 0.000002 -0.000009 7.785499 52.611195 -9.462369 0.560529 -0.000001 0.000008 2.173912 11.745058 -5.749870 13.311112 2.676290 -1.652402 4.938299 -0.258388 10.491091 4.355363 4.299008 0.000002 -0.000001 14.216642 9.582580 -104.563735 -0.000000 0.000003 -10.245102 6.572112 725.882015 -2.288205 0.000018 0.000002 -12.703314 930.126637 -134.658204 434.311375 -2.534600 -1.686410 5.194997 -3.027972 4.496410 5.217566 -4.144102 0.000006 -0.000004 55.847079 -21.218293 156.276313 0.000001 0.000005 -10.116488 -86.990812 -10.254143 -22.435162 0.000003 0.000003 -12.937809 -357.797465 -369.487962 17.345660 2.175591 0.064496 -2.662892 -272.786609 -39.165374 79.803131 -0.000004 -0.000016 -18.585814 -48.779780 -244.942086 65.332672 0.000005 -0.000005 -18.979506 295.666513 28.327132 10.092698 -2.092412 -0.058102 -2.581198 245.797772 -25.120541 -66.897106 0.000006 0.000012 -18.665012 -935.738539 38.279044 -65.892215 0.000003 -0.000010 -18.566599 696.686453 -6.018326 -8.757935
24.594900 66.208603 40.806293 684.446590 25.501860 -22.571678 -0.153499 1.163110 7.852408 42.208281 -7.644496 -8.561162 0.000001 -0.000002 3.343308 -20.012497 -10.681052 -1.909590 -0.000011 -0.000012 7.785502 52.687676 -9.382783 0.539454 0.000003 -0.000008 2.173911 11.638157 -5.749084 13.324028 2.676291 -1.652402 4.938300 -0.064975 10.295800 4.222787 4.299001 0.000007 -0.000004 13.797793 9.358198 -104.419693 -0.000002 0.000010 -10.245106 6.073880 726.049109 -2.280992 0.000009 0.000000 -12.703314 929.978996 -134.632550 434.240942 -2.534598 -1.686408 5.194997 -3.350251 4.297954 5.443485 -4.144102 0.000004 0.000010 56.075040 -21.194690 155.959173 -0.000004 -0.000003 -10.116489 -86.900954 -10.348467 -22.290739 0.000005 -0.000005 -12.937800 -357.862461 -369.643254 16.924565 2.175603 0.064496 -2.662893 -272.621127 -39.246766 79.845287 -0.000002 -0.000008 -18.585814 -48.501402 -244.946921 65.247486 -0.000002 0.000008 -18.979502 295.664245 28.439087 10.065650 -2.092401 -0.058105 -2.581196 245.799794 -25.061448 -66.988822 0.000004 -0.000003 -18.665003 -935.758319 38.276933 -65.806728 -0.000002 -0.000014 -18.566601 696.617933 -5.812245 -8.318416
